<?xml version="1.0" encoding="utf-8"?>
<!-- Generator: Adobe Illustrator 24.0.0, SVG Export Plug-In . SVG Version: 6.00 Build 0)  -->
<svg version="1.1" id="Layer_1" xmlns="http://www.w3.org/2000/svg" xmlns:xlink="http://www.w3.org/1999/xlink" x="0px" y="0px"
	 viewBox="0 0 887.2 107.3" style="enable-background:new 0 0 887.2 107.3;" xml:space="preserve">
<style type="text/css">
	.st0{fill:#FFFFFF;}
</style>
<title>nodeconf-logo-big</title>
<polygon class="st0" points="60,69.5 59.7,69.5 20.2,5.8 -0.6,5.8 -0.6,100.7 19,100.7 19,37.2 19.2,37.2 58.7,100.7 79.5,100.7 
	79.5,5.8 60,5.8 "/>
<path class="st0" d="M170.7,18c-4.1-4.5-9-8.2-14.6-10.6c-6.2-2.7-12.9-4-19.7-3.9c-6.7-0.1-13.4,1.2-19.6,3.9
	c-5.6,2.4-10.6,6.1-14.7,10.6c-4.1,4.7-7.2,10.1-9.2,15.9c-2.2,6.4-3.2,13-3.2,19.7c0,6.6,1,13.1,3.2,19.4c2,5.7,5.1,11,9.2,15.6
	c4.1,4.5,9.1,8,14.7,10.4c6.2,2.6,12.9,3.9,19.6,3.8c6.7,0.1,13.4-1.2,19.7-3.8c5.6-2.4,10.5-5.9,14.6-10.4
	c4.1-4.5,7.2-9.8,9.2-15.6c2.2-6.2,3.2-12.8,3.2-19.4c0.1-6.7-1-13.4-3.2-19.7C177.8,28.1,174.7,22.7,170.7,18z"/>
<path class="st0" d="M265,17.5c-3.9-3.9-8.6-6.9-13.8-8.8c-5.5-2-11.3-3-17.1-2.9h-40.8v94.9h40.9c6.5,0.2,13-1.1,18.9-3.7
	c5.2-2.3,9.8-5.7,13.4-10c3.7-4.4,6.4-9.6,8-15.1c1.8-6.2,2.7-12.7,2.7-19.1c0.2-7-0.9-14.1-3.2-20.7C272,26.6,269,21.6,265,17.5z
	 M254.4,68c-1.1,3.3-3,6.3-5.3,8.8c-2.1,2.2-4.7,3.8-7.6,4.8c-2.8,1-5.8,1.5-8.7,1.5h-18.6V23.3H229c4.4-0.1,8.8,0.6,12.9,2.2
	c3.3,1.3,6.2,3.5,8.4,6.3c2.2,2.9,3.8,6.3,4.6,9.9c1,4.2,1.5,8.6,1.4,12.9C256.5,59.2,255.8,63.7,254.4,68z"/>
<polygon class="st0" points="308.6,59.9 354.6,59.9 354.6,43.7 308.6,43.7 308.6,23.3 358.7,23.3 358.7,5.8 287.7,5.8 287.7,100.7 
	359.8,100.7 359.8,83.1 308.6,83.1 "/>
<path class="st0" d="M427.3,79.6c-3.9,4-9.3,6.2-14.9,5.9c-4.2,0.1-8.3-0.8-12-2.7c-3.2-1.8-5.9-4.2-8-7.3
	c-2.1-3.2-3.6-6.7-4.5-10.4c-0.9-3.8-1.4-7.7-1.4-11.6c0-4.1,0.4-8.1,1.4-12.1c0.9-3.7,2.4-7.2,4.5-10.4c2-3,4.8-5.5,8-7.3
	c3.7-1.9,7.8-2.9,12-2.7c2.5,0,5,0.4,7.4,1.2c2.3,0.8,4.4,2,6.3,3.5c1.8,1.5,3.4,3.3,4.6,5.3c1.3,2,2.1,4.3,2.4,6.6h20.2
	c-0.5-5.1-2-10.1-4.5-14.6c-2.3-4.1-5.4-7.8-9.1-10.7c-3.7-2.9-8-5.1-12.5-6.6c-4.7-1.5-9.7-2.2-14.6-2.1
	c-6.7-0.1-13.4,1.2-19.6,3.9c-5.7,2.4-10.8,6-14.9,10.6c-4.1,4.6-7.2,10-9.2,15.9c-2.2,6.4-3.2,13-3.2,19.7c0,6.6,1,13.1,3.2,19.3
	c2,5.8,5.1,11.1,9.2,15.6c4.1,4.5,9.1,8,14.7,10.4c6.2,2.6,12.9,3.9,19.6,3.8c5.5,0.1,10.9-0.8,16.1-2.7c4.7-1.7,9.1-4.3,12.8-7.7
	c3.7-3.5,6.6-7.6,8.7-12.2c2.3-5.1,3.7-10.5,4.1-16h-20.2C433.3,69.8,431.1,75.2,427.3,79.6z"/>
<polygon class="st0" points="601.7,69.5 601.4,69.5 561.8,5.8 541.1,5.8 541.1,100.7 560.7,100.7 560.7,37.2 560.9,37.2 
	600.4,100.7 621.2,100.7 621.2,5.8 601.7,5.8 "/>
<polygon class="st0" points="635.6,100.7 656.4,100.7 656.4,61.5 696.1,61.5 696.1,45.3 656.4,45.3 656.4,23.3 702.3,23.3 
	702.3,5.8 635.6,5.8 "/>
<circle class="st0" cx="497.5" cy="53.2" r="33"/>
<path class="st0" d="M844.7,44c0.6-1.4,0.8-2.8,0.8-4.3c0.1-2.4-0.9-4.8-2.8-6.3c-3.1-1.8-6.6-2.6-10.2-2.3h-5.3v20.6h10
	c1.9-0.9,3.6-2.2,5-3.8C843.3,46.8,844.1,45.4,844.7,44z"/>
<polygon class="st0" points="792.7,36.7 791.3,42.3 784.8,63.1 800.8,63.1 794.2,42.3 "/>
<path class="st0" d="M745.2,6.1v94.2h141.1V6.1H745.2z M806.2,80.7l-3.7-12.1h-19.3l-3.7,12.1h-6.9l16.9-54.9h7.3l17,54.9H806.2z
	 M848.9,80.7l-14.6-23.4h-7.1v23.4h-7.2V25.7h14.6c3.6-0.2,7.2,0.3,10.6,1.5c2.2,0.9,4,2.4,5.2,4.4c1.2,1.9,1.8,4.1,1.9,6.3
	c0,2.1-0.4,4.3-1.2,6.3c-0.8,2.1-1.9,4.1-3.3,5.9c-1.8,2-3.9,3.6-6.3,4.8l15.9,25.7L848.9,80.7z"/>
</svg>
