<svg id="Layer_1" data-name="Layer 1" xmlns="http://www.w3.org/2000/svg" viewBox="0 0 230 202"><defs><style>.cls-1{fill:#fff;}</style></defs><title>nodeconf-big-m</title><path class="cls-1" d="M14.11,2.64,39.28,43.1h.17V2.64H51.87V63H38.61L13.53,22.57h-.18V63H.94V2.64Z"/><path class="cls-1" d="M60.4,20.5a30.21,30.21,0,0,1,5.83-10.09,26.7,26.7,0,0,1,9.33-6.76A30.51,30.51,0,0,1,88,1.2a30.44,30.44,0,0,1,12.5,2.45,26.82,26.82,0,0,1,9.29,6.76,30.21,30.21,0,0,1,5.83,10.09,37.75,37.75,0,0,1,2,12.55,36.47,36.47,0,0,1-2,12.29,29.33,29.33,0,0,1-5.83,9.92,26.63,26.63,0,0,1-9.29,6.63A30.77,30.77,0,0,1,88,64.3a30.84,30.84,0,0,1-12.46-2.41,26.51,26.51,0,0,1-9.33-6.63,29.33,29.33,0,0,1-5.83-9.92,36.47,36.47,0,0,1-2-12.29A37.75,37.75,0,0,1,60.4,20.5Z"/><path class="cls-1" d="M150.18,2.64A31.08,31.08,0,0,1,161,4.5a23.67,23.67,0,0,1,8.7,5.57,25.94,25.94,0,0,1,5.74,9.29,37.6,37.6,0,0,1,2.07,13.1,41.66,41.66,0,0,1-1.69,12.16,27,27,0,0,1-5.11,9.63,23.83,23.83,0,0,1-8.53,6.37,28.86,28.86,0,0,1-12,2.33h-26V2.64Zm-.93,49.16a17.06,17.06,0,0,0,5.58-.93,12.38,12.38,0,0,0,4.82-3.08A15.56,15.56,0,0,0,163,42.17a24.61,24.61,0,0,0,1.27-8.45,35.18,35.18,0,0,0-.89-8.23,16.49,16.49,0,0,0-2.91-6.3,13,13,0,0,0-5.36-4,21.47,21.47,0,0,0-8.24-1.39h-9.46v38Z"/><path class="cls-1" d="M229.32,2.64V13.79H197.48V26.71H226.7V37H197.48V51.8H230V63H184.22V2.64Z"/><path class="cls-1" d="M44.25,93.18a14.39,14.39,0,0,0-3.17-3.58,14.77,14.77,0,0,0-9.32-3.26,16.55,16.55,0,0,0-8.14,1.86,15.47,15.47,0,0,0-5.43,5,21.69,21.69,0,0,0-3,7.1,35,35,0,0,0-.95,8.23,32.53,32.53,0,0,0,.95,7.92,21.34,21.34,0,0,0,3,6.93,15.62,15.62,0,0,0,5.43,4.93,16.55,16.55,0,0,0,8.14,1.85q6.51,0,10.18-4a18.4,18.4,0,0,0,4.49-10.5H60.18a32.66,32.66,0,0,1-2.81,11,26.11,26.11,0,0,1-6,8.33,25.44,25.44,0,0,1-8.69,5.25A32,32,0,0,1,31.76,142a33.12,33.12,0,0,1-13.35-2.58,28.51,28.51,0,0,1-10-7.11,31.35,31.35,0,0,1-6.25-10.63A39.21,39.21,0,0,1,0,108.51,40.54,40.54,0,0,1,2.17,95.08,32.23,32.23,0,0,1,8.42,84.26a28.45,28.45,0,0,1,10-7.24A32.62,32.62,0,0,1,31.76,74.4a32.39,32.39,0,0,1,10.09,1.54,27.16,27.16,0,0,1,8.51,4.48,24.18,24.18,0,0,1,6.2,7.28,26.16,26.16,0,0,1,3.08,10H45.88A11.61,11.61,0,0,0,44.25,93.18Z"/><path class="cls-1" d="M133.56,75.94l27,43.34h.17V75.94H174v64.61H159.8L132.92,97.29h-.18v43.26h-13.3V75.94Z"/><path class="cls-1" d="M229.21,75.94V87.88H198v14.93h27.06v11H198v26.7H183.78V75.94Z"/><path class="cls-1" d="M112.21,108.2A22.45,22.45,0,1,1,89.76,85.75,22.45,22.45,0,0,1,112.21,108.2Z"/><path class="cls-1" d="M.89,162V203.2H229.48V162Zm30,30-1.57-4.35H21L19.43,192H16.82l7-18.45h2.74L33.45,192Zm22,0-4.91-7.68H45.26V192H42.84v-18.8H49a6.67,6.67,0,0,1,4.8,1.54,5.34,5.34,0,0,1,1.6,4.06,5.26,5.26,0,0,1-1.28,3.69,5.93,5.93,0,0,1-3.71,1.75L55.55,192Zm30-7.81a9.27,9.27,0,0,1-1.39,4.05,8.24,8.24,0,0,1-3.09,2.88,9.07,9.07,0,0,1-4.43,1.06A9.29,9.29,0,0,1,69.07,191a8.4,8.4,0,0,1-3.24-3.39,11.23,11.23,0,0,1,0-9.94,8.49,8.49,0,0,1,3.24-3.4A9.25,9.25,0,0,1,73.84,173a9.09,9.09,0,0,1,5.5,1.62,7.87,7.87,0,0,1,3,4.43H79.78a5.7,5.7,0,0,0-2.22-2.75,6.53,6.53,0,0,0-3.7-1,6.6,6.6,0,0,0-3.43.9A6.18,6.18,0,0,0,68,178.73a8.24,8.24,0,0,0-.87,3.89,8.45,8.45,0,0,0,.88,4,6.22,6.22,0,0,0,2.44,2.56,7.06,7.06,0,0,0,3.59.89,6.88,6.88,0,0,0,3.17-.74,6.09,6.09,0,0,0,2.36-2.18,7.48,7.48,0,0,0,1.11-3.34H73.33V182h9.44Zm20.58-9H95.4v6.42h7.15v1.87H95.4V190h7.95v2H93v-18.8h10.37ZM128,192h-2.42l-9.76-14.85V192H113.4v-18.8h2.42l9.76,14.88V173.21H128Zm22.34-16.82H145V192h-2.43V175.19h-5.3v-2h13ZM162.1,192h-2.43v-18.8h2.43Zm25.43,0H185.1l-9.75-14.85V192h-2.43v-18.8h2.43l9.75,14.88V173.21h2.43Zm23.4,0-1.57-4.35H201.1L199.52,192h-2.61l7-18.45h2.74L213.54,192Z"/><path class="cls-1" d="M52.94,178.94q0-3.62-4.13-3.62H45.26v7.25h3.55Q52.94,182.57,52.94,178.94Z"/><polygon class="cls-1" points="201.79 185.77 208.67 185.77 205.23 176.28 201.79 185.77"/><polygon class="cls-1" points="21.7 185.77 28.58 185.77 25.14 176.28 21.7 185.77"/></svg>