<svg id="Layer_1" data-name="Layer 1" xmlns="http://www.w3.org/2000/svg" xmlns:xlink="http://www.w3.org/1999/xlink" viewBox="0 0 887.22 128.37"><defs><style>.cls-1{fill:none;}.cls-2{clip-path:url(#clip-path);}.cls-3{fill:#fff;}</style><clipPath id="clip-path"><rect class="cls-1" x="-183.14" y="-575.05" width="1274.93" height="412.16"/></clipPath></defs><title>nodeconf-logo-big</title><g class="cls-2"><image width="2400" height="1600" transform="matrix(-0.53, 0, 0, 0.53, 1088.14, -650)" xlink:href="../Work/*ComunidadesTECH/Nodeconf2020/Proposal/Nodecon%20dia%202%20(262).jpg"/></g><polygon class="cls-3" points="77.75 85.08 77.41 85.08 27.74 5.23 1.73 5.23 1.73 124.26 26.23 124.26 26.23 44.57 26.57 44.57 76.08 124.25 102.25 124.25 102.25 5.23 77.75 5.23 77.75 85.08"/><path class="cls-3" d="M216.59,20.57A52.74,52.74,0,0,0,198.25,7.24,60,60,0,0,0,173.58,2.4,60.12,60.12,0,0,0,149,7.24a52.46,52.46,0,0,0-18.41,13.33,59.4,59.4,0,0,0-11.5,19.92,74.56,74.56,0,0,0-4,24.75,72.14,72.14,0,0,0,4,24.27,57.74,57.74,0,0,0,11.5,19.58A52.47,52.47,0,0,0,149,122.18a61.25,61.25,0,0,0,24.59,4.76,61,61,0,0,0,24.67-4.76,53,53,0,0,0,18.34-13.09,57.56,57.56,0,0,0,11.49-19.58,71.89,71.89,0,0,0,4-24.27,74.3,74.3,0,0,0-4-24.75A59.21,59.21,0,0,0,216.59,20.57Z"/><path class="cls-3" d="M334.85,19.9a46.52,46.52,0,0,0-17.17-11,61.15,61.15,0,0,0-21.42-3.68H244.89v119h51.34c9.11,0,17-1.51,23.76-4.59a47.47,47.47,0,0,0,16.85-12.58,53.07,53.07,0,0,0,10.09-19,82.53,82.53,0,0,0,3.34-24q0-14.83-4.09-25.84A50.86,50.86,0,0,0,334.85,19.9ZM321.58,83.24a30.63,30.63,0,0,1-6.66,11.09,24.16,24.16,0,0,1-9.49,6.08,33.1,33.1,0,0,1-11,1.84H271.08v-75h18.69c6.42,0,11.86.91,16.23,2.75a25.5,25.5,0,0,1,10.58,7.91,32.39,32.39,0,0,1,5.75,12.43,68,68,0,0,1,1.76,16.24A48.74,48.74,0,0,1,321.58,83.24Z"/><polygon class="cls-3" points="389.62 73.08 447.27 73.08 447.27 52.73 389.62 52.73 389.62 27.25 452.45 27.25 452.45 5.23 363.44 5.23 363.44 124.26 453.79 124.26 453.79 102.25 389.62 102.25 389.62 73.08"/><path class="cls-3" d="M538.54,97.78c-4.48,4.89-10.76,7.33-18.75,7.33a30.57,30.57,0,0,1-15-3.42,28.5,28.5,0,0,1-10-9.09,39.86,39.86,0,0,1-5.59-12.77,59.53,59.53,0,0,1-1.75-14.59,63.94,63.94,0,0,1,1.75-15.17A40.4,40.4,0,0,1,494.79,37a28.28,28.28,0,0,1,10-9.18,30.65,30.65,0,0,1,15-3.4A26.81,26.81,0,0,1,542.8,37a21.38,21.38,0,0,1,3,8.3h25.35A48.43,48.43,0,0,0,565.47,27a44.23,44.23,0,0,0-11.42-13.42,50.19,50.19,0,0,0-15.67-8.25,63.83,63.83,0,0,0-43.18,2,52.59,52.59,0,0,0-18.42,13.33,59.35,59.35,0,0,0-11.49,19.92,74.52,74.52,0,0,0-4,24.75,72,72,0,0,0,4,24.24,57.88,57.88,0,0,0,11.49,19.6,52.76,52.76,0,0,0,18.42,13.09A61.55,61.55,0,0,0,519.79,127,58.54,58.54,0,0,0,540,123.63,46.7,46.7,0,0,0,556,114a48.89,48.89,0,0,0,11-15.34,60.33,60.33,0,0,0,5.17-20.18H546.8C545.77,86.45,543.05,92.88,538.54,97.78Z"/><polygon class="cls-3" points="757.3 85.08 756.97 85.08 707.3 5.23 681.32 5.23 681.32 124.25 705.82 124.25 705.82 44.55 706.15 44.55 755.64 124.25 781.81 124.25 781.81 5.23 757.3 5.23 757.3 85.08"/><polygon class="cls-3" points="799.81 124.25 825.98 124.25 825.98 75.08 875.82 75.08 875.82 54.75 825.98 54.75 825.98 27.25 883.48 27.25 883.48 5.23 799.81 5.23 799.81 124.25"/><circle class="cls-3" cx="626.63" cy="64.66" r="41.35"/></svg>