<?xml version="1.0" encoding="utf-8"?>
<!-- Generator: Adobe Illustrator 24.0.0, SVG Export Plug-In . SVG Version: 6.00 Build 0)  -->
<svg version="1.1" id="Layer_1" xmlns="http://www.w3.org/2000/svg" xmlns:xlink="http://www.w3.org/1999/xlink" x="0px" y="0px"
	 viewBox="0 0 257.9 40" style="enable-background:new 0 0 257.9 40;" xml:space="preserve">
<style type="text/css">
	.st0{fill:#ADCB2B;}
</style>
<title>nodeconf-logo</title>
<polygon class="st0" points="18,24.7 17.9,24.7 6.4,6.3 0.4,6.3 0.4,33.7 6.1,33.7 6.1,15.4 6.2,15.4 17.6,33.7 23.6,33.7 23.6,6.3 
	18,6.3 "/>
<path class="st0" d="M50,9.8c-1.2-1.3-2.6-2.4-4.2-3.1C44,6,42,5.6,40.1,5.6c-2,0-3.9,0.4-5.7,1.1c-1.6,0.7-3.1,1.8-4.2,3.1
	c-1.2,1.3-2.1,2.9-2.7,4.6c-0.6,1.8-0.9,3.8-0.9,5.7c0,1.9,0.3,3.8,0.9,5.6c0.6,1.7,1.5,3.2,2.7,4.5c1.2,1.3,2.6,2.3,4.2,3
	c1.8,0.8,3.7,1.1,5.7,1.1c2,0,3.9-0.3,5.7-1.1c1.6-0.7,3.1-1.7,4.2-3c1.2-1.3,2.1-2.8,2.7-4.5c0.6-1.8,0.9-3.7,0.9-5.6
	c0-1.9-0.3-3.9-0.9-5.7C52.1,12.7,51.2,11.2,50,9.8z"/>
<path class="st0" d="M77.3,9.7c-1.1-1.1-2.5-2-4-2.5c-1.6-0.6-3.3-0.9-4.9-0.8H56.5v27.5h11.8c1.9,0,3.8-0.3,5.5-1.1
	c1.5-0.7,2.8-1.7,3.9-2.9c1.1-1.3,1.9-2.8,2.3-4.4c0.5-1.8,0.8-3.7,0.8-5.5c0-2-0.3-4.1-0.9-6C79.3,12.3,78.4,10.9,77.3,9.7z
	 M74.2,24.3c-0.3,1-0.9,1.8-1.5,2.6c-0.6,0.6-1.4,1.1-2.2,1.4c-0.8,0.3-1.7,0.4-2.5,0.4h-5.4V11.4h4.3c1.3,0,2.5,0.2,3.7,0.6
	c1,0.4,1.8,1,2.4,1.8c0.6,0.9,1.1,1.8,1.3,2.9c0.3,1.2,0.4,2.5,0.4,3.7C74.8,21.7,74.6,23,74.2,24.3z"/>
<polygon class="st0" points="89.9,21.9 103.2,21.9 103.2,17.2 89.9,17.2 89.9,11.4 104.4,11.4 104.4,6.3 83.9,6.3 83.9,33.7 
	104.7,33.7 104.7,28.7 89.9,28.7 "/>
<path class="st0" d="M124.3,27.6c-1.1,1.2-2.7,1.8-4.3,1.7c-1.2,0-2.4-0.2-3.5-0.8c-0.9-0.5-1.7-1.2-2.3-2.1c-0.6-0.9-1-1.9-1.3-3
	c-0.3-1.1-0.4-2.2-0.4-3.4c0-1.2,0.1-2.4,0.4-3.5c0.3-1.1,0.7-2.1,1.3-3c0.6-0.9,1.4-1.6,2.3-2.1c1.1-0.6,2.3-0.8,3.5-0.8
	c0.7,0,1.4,0.1,2.1,0.4c0.7,0.2,1.3,0.6,1.8,1c0.5,0.4,1,0.9,1.3,1.5c0.4,0.6,0.6,1.2,0.7,1.9h5.8c-0.1-1.5-0.6-2.9-1.3-4.2
	c-0.7-1.2-1.6-2.3-2.6-3.1c-1.1-0.8-2.3-1.5-3.6-1.9c-1.4-0.4-2.8-0.6-4.2-0.6c-2,0-3.9,0.4-5.7,1.1c-1.7,0.7-3.1,1.7-4.3,3.1
	c-1.2,1.3-2.1,2.9-2.7,4.6c-0.6,1.8-0.9,3.8-0.9,5.7c0,1.9,0.3,3.8,0.9,5.6c0.6,1.7,1.5,3.2,2.7,4.5c1.2,1.3,2.6,2.3,4.2,3
	c1.8,0.8,3.7,1.1,5.7,1.1c1.6,0,3.2-0.2,4.7-0.8c1.4-0.5,2.6-1.2,3.7-2.2c1.1-1,1.9-2.2,2.5-3.5c0.7-1.5,1.1-3,1.2-4.6h-5.8
	C126,24.8,125.4,26.4,124.3,27.6z"/>
<polygon class="st0" points="174.7,24.7 174.7,24.7 163.2,6.3 157.2,6.3 157.2,33.7 162.9,33.7 162.9,15.4 162.9,15.4 174.4,33.7 
	180.4,33.7 180.4,6.3 174.7,6.3 "/>
<polygon class="st0" points="184.5,33.7 190.6,33.7 190.6,22.4 202.1,22.4 202.1,17.7 190.6,17.7 190.6,11.4 203.8,11.4 203.8,6.3 
	184.5,6.3 "/>
<circle class="st0" cx="144.6" cy="20" r="9.5"/>
<path class="st0" d="M244.2,17.1c0.2-0.4,0.3-0.9,0.3-1.4c0-0.8-0.3-1.5-0.9-2c-1-0.6-2.1-0.8-3.2-0.7h-1.7v6.6h3.2
	c0.6-0.3,1.1-0.7,1.6-1.2C243.7,18,244,17.5,244.2,17.1z"/>
<polygon class="st0" points="227.6,14.7 227.2,16.5 225.1,23.2 230.2,23.2 228.1,16.5 "/>
<path class="st0" d="M212.5,6.3v27.5h44.9V6.3H212.5z M231.9,28.7l-1.2-3.9h-6.1l-1.2,3.9h-2.2l5.4-17.5h2.3l5.4,17.5H231.9z
	 M245.5,28.7l-4.6-7.4h-2.3v7.4h-2.3V11.2h4.6c1.1-0.1,2.3,0.1,3.4,0.5c0.7,0.3,1.3,0.8,1.7,1.4c0.4,0.6,0.6,1.3,0.6,2
	c0,0.7-0.1,1.4-0.4,2c-0.2,0.7-0.6,1.3-1.1,1.9c-0.6,0.6-1.2,1.1-2,1.5l5.1,8.2L245.5,28.7z"/>
</svg>
