<?xml version="1.0" encoding="utf-8"?>
<!-- Generator: Adobe Illustrator 24.0.0, SVG Export Plug-In . SVG Version: 6.00 Build 0)  -->
<svg version="1.1" id="Layer_1" xmlns="http://www.w3.org/2000/svg" xmlns:xlink="http://www.w3.org/1999/xlink" x="0px" y="0px"
	 viewBox="0 0 703.2 100" style="enable-background:new 0 0 703.2 100;" xml:space="preserve">
<style type="text/css">
	.st0{fill:#FFFFFF;}
</style>
<title>nodeconf-logo-big</title>
<polygon class="st0" points="60,65.8 59.7,65.8 20.2,2.1 -0.6,2.1 -0.6,97 19,97 19,33.5 19.2,33.5 58.7,97 79.5,97 79.5,2.1 
	60,2.1 "/>
<path class="st0" d="M170.7,14.3c-4.1-4.5-9-8.2-14.6-10.6c-6.2-2.7-12.9-4-19.7-3.9C129.7-0.3,123,1,116.8,3.7
	c-5.6,2.4-10.6,6.1-14.7,10.6C98,19,94.9,24.4,92.9,30.2c-2.2,6.4-3.2,13-3.2,19.7c0,6.6,1,13.1,3.2,19.4c2,5.7,5.1,11,9.2,15.6
	c4.1,4.5,9.1,8,14.7,10.4c6.2,2.6,12.9,3.9,19.6,3.8c6.7,0.1,13.4-1.2,19.7-3.8c5.6-2.4,10.5-5.9,14.6-10.4s7.2-9.8,9.2-15.6
	c2.2-6.2,3.2-12.8,3.2-19.4c0.1-6.7-1-13.4-3.2-19.7C177.8,24.4,174.7,19,170.7,14.3z"/>
<path class="st0" d="M265,13.8c-3.9-3.9-8.6-6.9-13.8-8.8c-5.5-2-11.3-3-17.1-2.9h-40.8v94.9h40.9c6.5,0.2,13-1.1,18.9-3.7
	c5.2-2.3,9.8-5.7,13.4-10c3.7-4.4,6.4-9.6,8-15.1c1.8-6.2,2.7-12.7,2.7-19.1c0.2-7-0.9-14.1-3.2-20.7C272,22.9,269,17.9,265,13.8z
	 M254.4,64.3c-1.1,3.3-3,6.3-5.3,8.8c-2.1,2.2-4.7,3.8-7.6,4.8c-2.8,1-5.8,1.5-8.7,1.5h-18.6V19.6H229c4.4-0.1,8.8,0.6,12.9,2.2
	c3.3,1.3,6.2,3.5,8.4,6.3c2.2,2.9,3.8,6.3,4.6,9.9c1,4.2,1.5,8.6,1.4,12.9C256.5,55.5,255.8,60,254.4,64.3z"/>
<polygon class="st0" points="308.6,56.2 354.6,56.2 354.6,40 308.6,40 308.6,19.6 358.7,19.6 358.7,2.1 287.7,2.1 287.7,97 
	359.8,97 359.8,79.4 308.6,79.4 "/>
<path class="st0" d="M427.3,75.9c-3.9,4-9.3,6.2-14.9,5.9c-4.2,0.1-8.3-0.8-12-2.7c-3.2-1.8-5.9-4.2-8-7.3
	c-2.1-3.2-3.6-6.7-4.5-10.4c-0.9-3.8-1.4-7.7-1.4-11.6c0-4.1,0.4-8.1,1.4-12.1c0.9-3.7,2.4-7.2,4.5-10.4c2-3,4.8-5.5,8-7.3
	c3.7-1.9,7.8-2.9,12-2.7c2.5,0,5,0.4,7.4,1.2c2.3,0.8,4.4,2,6.3,3.5c1.8,1.5,3.4,3.3,4.6,5.3c1.3,2,2.1,4.3,2.4,6.6h20.2
	c-0.5-5.1-2-10.1-4.5-14.6c-2.3-4.1-5.4-7.8-9.1-10.7s-8-5.1-12.5-6.6c-4.7-1.5-9.7-2.2-14.6-2.1c-6.7-0.1-13.4,1.2-19.6,3.9
	c-5.7,2.4-10.8,6-14.9,10.6s-7.2,10-9.2,15.9c-2.2,6.4-3.2,13-3.2,19.7c0,6.6,1,13.1,3.2,19.3c2,5.8,5.1,11.1,9.2,15.6
	s9.1,8,14.7,10.4c6.2,2.6,12.9,3.9,19.6,3.8c5.5,0.1,10.9-0.8,16.1-2.7c4.7-1.7,9.1-4.3,12.8-7.7c3.7-3.5,6.6-7.6,8.7-12.2
	c2.3-5.1,3.7-10.5,4.1-16h-20.2C433.3,66.2,431.1,71.5,427.3,75.9z"/>
<polygon class="st0" points="601.7,65.8 601.4,65.8 561.8,2.1 541.1,2.1 541.1,97 560.7,97 560.7,33.5 560.9,33.5 600.4,97 
	621.2,97 621.2,2.1 601.7,2.1 "/>
<polygon class="st0" points="635.6,97 656.4,97 656.4,57.8 696.1,57.8 696.1,41.6 656.4,41.6 656.4,19.6 702.3,19.6 702.3,2.1 
	635.6,2.1 "/>
<circle class="st0" cx="497.5" cy="49.5" r="33"/>
</svg>
