<svg data-name="logo" xmlns="http://www.w3.org/2000/svg" viewBox="0 0 257.88 40"><defs></defs><title>nodeconf-logo</title><polygon fill="#adcb2b" points="17.98 24.71 17.9 24.71 6.45 6.29 0.45 6.29 0.45 33.74 6.1 33.74 6.1 15.36 6.18 15.36 17.6 33.74 23.63 33.74 23.63 6.29 17.98 6.29 17.98 24.71"/><path fill="#adcb2b" d="M50,9.82a12.33,12.33,0,0,0-4.23-3.07,13.89,13.89,0,0,0-5.69-1.12,14,14,0,0,0-5.68,1.12,12.18,12.18,0,0,0-4.24,3.07,13.88,13.88,0,0,0-2.66,4.6,17.27,17.27,0,0,0-.92,5.71,16.78,16.78,0,0,0,.92,5.6,13.46,13.46,0,0,0,2.66,4.51,11.93,11.93,0,0,0,4.24,3,14.17,14.17,0,0,0,5.68,1.1,14.09,14.09,0,0,0,5.69-1.1,12.2,12.2,0,0,0,4.23-3,13.28,13.28,0,0,0,2.65-4.51,16.78,16.78,0,0,0,.92-5.6,17.27,17.27,0,0,0-.92-5.71A13.69,13.69,0,0,0,50,9.82Z"/><path fill="#adcb2b" d="M77.29,9.67a10.86,10.86,0,0,0-4-2.54,14.24,14.24,0,0,0-4.94-.84H56.54V33.74H68.38a13.07,13.07,0,0,0,5.48-1.06,11,11,0,0,0,3.89-2.9,12.25,12.25,0,0,0,2.32-4.38,18.78,18.78,0,0,0,.77-5.54,17.06,17.06,0,0,0-.94-6A11.84,11.84,0,0,0,77.29,9.67ZM74.23,24.28a7.22,7.22,0,0,1-1.54,2.56,5.59,5.59,0,0,1-2.19,1.4,7.51,7.51,0,0,1-2.53.42H62.58V11.36h4.31a9.78,9.78,0,0,1,3.74.63,6,6,0,0,1,2.44,1.83,7.45,7.45,0,0,1,1.33,2.87,15.86,15.86,0,0,1,.41,3.74A11.35,11.35,0,0,1,74.23,24.28Z"/><polygon fill="#adcb2b" points="89.92 21.94 103.22 21.94 103.22 17.24 89.92 17.24 89.92 11.36 104.41 11.36 104.41 6.29 83.88 6.29 83.88 33.74 104.72 33.74 104.72 28.66 89.92 28.66 89.92 21.94"/><path fill="#adcb2b" d="M124.27,27.63a5.57,5.57,0,0,1-4.32,1.7,7.08,7.08,0,0,1-3.46-.79,6.67,6.67,0,0,1-2.31-2.1,9.13,9.13,0,0,1-1.29-3,13.92,13.92,0,0,1-.4-3.36,15,15,0,0,1,.4-3.5,9.32,9.32,0,0,1,1.29-3,6.51,6.51,0,0,1,2.31-2.11,7,7,0,0,1,3.46-.79,6.35,6.35,0,0,1,2.13.36,6.53,6.53,0,0,1,1.83,1,6.26,6.26,0,0,1,1.34,1.52,4.87,4.87,0,0,1,.7,1.92h5.84a10.94,10.94,0,0,0-1.31-4.23,10.14,10.14,0,0,0-2.63-3.1,11.48,11.48,0,0,0-3.62-1.9A13.65,13.65,0,0,0,120,5.64a13.94,13.94,0,0,0-5.68,1.12A12.08,12.08,0,0,0,110,9.84a13.57,13.57,0,0,0-2.66,4.59,17.31,17.31,0,0,0-.92,5.71,16.68,16.68,0,0,0,.92,5.59A13.25,13.25,0,0,0,110,30.25a12.19,12.19,0,0,0,4.24,3,14.17,14.17,0,0,0,5.68,1.1,13.54,13.54,0,0,0,4.65-.77,11,11,0,0,0,3.7-2.23,11.41,11.41,0,0,0,2.53-3.54A14,14,0,0,0,132,23.17h-5.84A7.87,7.87,0,0,1,124.27,27.63Z"/><polygon fill="#adcb2b" points="174.73 24.71 174.66 24.71 163.2 6.29 157.21 6.29 157.21 33.74 162.86 33.74 162.86 15.36 162.93 15.36 174.35 33.74 180.39 33.74 180.39 6.29 174.73 6.29 174.73 24.71"/><polygon fill="#adcb2b" points="184.54 33.74 190.58 33.74 190.58 22.4 202.07 22.4 202.07 17.71 190.58 17.71 190.58 11.36 203.84 11.36 203.84 6.29 184.54 6.29 184.54 33.74"/><circle fill="#adcb2b" cx="144.59" cy="19.99" r="9.54"/><path fill="#adcb2b" d="M244.2,17.07a3.76,3.76,0,0,0,.27-1.38,2.4,2.4,0,0,0-.9-2,5.27,5.27,0,0,0-3.24-.73h-1.7v6.56h3.18a5.52,5.52,0,0,0,1.59-1.2A4.53,4.53,0,0,0,244.2,17.07Z"/><polygon fill="#adcb2b" points="227.61 14.74 227.17 16.52 225.1 23.16 230.2 23.16 228.1 16.52 227.61 14.74"/><path fill="#adcb2b" d="M212.49,5V35h44.94V5Zm19.42,23.75-1.19-3.85h-6.15l-1.19,3.85h-2.19l5.39-17.5h2.31l5.43,17.5Zm13.62,0-4.64-7.44h-2.26v7.44h-2.28V11.25H241a9,9,0,0,1,3.37.47,3.52,3.52,0,0,1,1.67,1.41,3.84,3.84,0,0,1,.59,2,5.68,5.68,0,0,1-.39,2A6.1,6.1,0,0,1,245.18,19a7.28,7.28,0,0,1-2,1.53l5.06,8.18Z"/></svg>