<?xml version="1.0" encoding="utf-8"?>
<!-- Generator: Adobe Illustrator 24.0.0, SVG Export Plug-In . SVG Version: 6.00 Build 0)  -->
<svg version="1.1" id="Layer_1" xmlns="http://www.w3.org/2000/svg" xmlns:xlink="http://www.w3.org/1999/xlink" x="0px" y="0px"
	 viewBox="0 0 230 142" style="enable-background:new 0 0 230 142;" xml:space="preserve">
<style type="text/css">
	.st0{fill:#FFFFFF;}
</style>
<title>nodeconf-big-m</title>
<path class="st0" d="M14.1,2.6l25.2,40.5h0.2V2.6h12.4V63H38.6L13.5,22.6h-0.2V63H0.9V2.6H14.1z"/>
<path class="st0" d="M60.4,20.5c1.3-3.7,3.3-7.1,5.8-10.1c2.6-2.9,5.8-5.2,9.3-6.8C79.5,2,83.7,1.1,88,1.2c4.3-0.1,8.6,0.8,12.5,2.5
	c3.5,1.6,6.7,3.9,9.3,6.8c2.6,3,4.6,6.4,5.8,10.1c1.4,4,2,8.3,2,12.5c0,4.2-0.6,8.3-2,12.3c-1.3,3.7-3.3,7-5.8,9.9
	c-2.6,2.9-5.8,5.1-9.3,6.6c-4,1.7-8.2,2.5-12.5,2.4c-4.3,0.1-8.5-0.8-12.5-2.4c-3.6-1.5-6.7-3.8-9.3-6.6c-2.6-2.9-4.6-6.3-5.8-9.9
	c-1.4-4-2-8.1-2-12.3C58.3,28.8,59,24.5,60.4,20.5z"/>
<path class="st0" d="M150.2,2.6c3.7,0,7.4,0.6,10.8,1.9c3.3,1.2,6.2,3.1,8.7,5.6c2.6,2.7,4.5,5.8,5.7,9.3c1.5,4.2,2.2,8.6,2.1,13.1
	c0,4.1-0.5,8.2-1.7,12.2c-1,3.5-2.8,6.8-5.1,9.6c-2.3,2.7-5.2,4.9-8.5,6.4c-3.8,1.6-7.9,2.4-12,2.3h-26V2.6H150.2z M149.2,51.8
	c1.9,0,3.8-0.3,5.6-0.9c1.8-0.6,3.5-1.7,4.8-3.1c1.5-1.6,2.6-3.5,3.3-5.6c0.9-2.7,1.3-5.6,1.3-8.5c0-2.8-0.3-5.5-0.9-8.2
	c-0.5-2.3-1.5-4.4-2.9-6.3c-1.4-1.8-3.3-3.2-5.4-4c-2.6-1-5.4-1.5-8.2-1.4h-9.5v38H149.2z"/>
<path class="st0" d="M229.3,2.6v11.1h-31.8v12.9h29.2V37h-29.2v14.8H230V63h-45.8V2.6H229.3z"/>
<path class="st0" d="M44.2,93.2c-0.8-1.4-1.9-2.6-3.2-3.6c-2.6-2.1-5.9-3.3-9.3-3.3c-2.8-0.1-5.6,0.6-8.1,1.9c-2.2,1.2-4,2.9-5.4,5
	c-1.4,2.2-2.4,4.6-3,7.1c-0.6,2.7-1,5.5-0.9,8.2c0,2.7,0.3,5.3,0.9,7.9c0.6,2.5,1.6,4.8,3,6.9c1.4,2.1,3.3,3.7,5.4,4.9
	c2.5,1.3,5.3,1.9,8.1,1.9c4.3,0,7.7-1.3,10.2-4c2.6-2.9,4.1-6.6,4.5-10.5h13.8c-0.3,3.8-1.2,7.5-2.8,11c-1.4,3.1-3.5,6-6,8.3
	c-2.5,2.3-5.5,4.1-8.7,5.2c-3.5,1.2-7.2,1.8-10.9,1.8c-4.6,0.1-9.1-0.8-13.4-2.6c-3.8-1.6-7.2-4-10-7.1c-2.8-3.1-4.9-6.7-6.2-10.6
	C0.7,117.4,0,113,0,108.5c0-4.6,0.7-9.1,2.2-13.4c1.4-4,3.5-7.7,6.2-10.8c2.8-3.1,6.2-5.6,10-7.2c4.2-1.8,8.8-2.7,13.3-2.6
	c3.4,0,6.8,0.5,10.1,1.5c3.1,1,6,2.5,8.5,4.5c2.5,2,4.6,4.5,6.2,7.3c1.7,3.1,2.7,6.5,3.1,10H45.9C45.7,96.1,45.1,94.6,44.2,93.2z"/>
<path class="st0" d="M133.6,75.9l27,43.3h0.2V75.9H174v64.6h-14.2l-26.9-43.3h-0.2v43.3h-13.3V75.9H133.6z"/>
<path class="st0" d="M229.2,75.9v11.9H198v14.9h27.1v11H198v26.7h-14.2V75.9H229.2z"/>
<path class="st0" d="M112.2,108.2c0,12.4-10.1,22.4-22.4,22.4c-12.4,0-22.5-10.1-22.5-22.4s10.1-22.5,22.4-22.5h0
	C102.2,85.8,112.2,95.8,112.2,108.2z"/>
</svg>
